<svg width="16" height="16" viewBox="0 0 16 16" fill="none" xmlns="http://www.w3.org/2000/svg">
<path d="M8 2.05325C8.57007 1.40736 9.40413 1 10.3333 1C12.0516 1 13.4444 2.39289 13.4444 4.11111C13.4444 5.82933 12.0516 7.22222 10.3333 7.22222C9.40413 7.22222 8.57007 6.81486 8 6.16897M10.3333 15H1V14.2222C1 11.6449 3.08934 9.55556 5.66667 9.55556C8.244 9.55556 10.3333 11.6449 10.3333 14.2222V15ZM10.3333 15H15V14.2222C15 11.6449 12.9107 9.55556 10.3333 9.55556C9.48333 9.55556 8.68641 9.78281 8 10.1799M8.77778 4.11111C8.77778 5.82933 7.38489 7.22222 5.66667 7.22222C3.94845 7.22222 2.55556 5.82933 2.55556 4.11111C2.55556 2.39289 3.94845 1 5.66667 1C7.38489 1 8.77778 2.39289 8.77778 4.11111Z" stroke="#ECECEC" stroke-linecap="round" stroke-linejoin="round"/>
</svg>
